<svg version="1.1" xmlns="http://www.w3.org/2000/svg" viewBox="0 0 812.1721887923034 460.82421875" width="1624.3443775846067" height="921.6484375">
  <!-- svg-source:excalidraw -->
  
  <defs>
    <style class="style-fonts">
      @font-face {
        font-family: "Virgil";
        src: url("https://excalidraw.com/Virgil.woff2");
      }
      @font-face {
        font-family: "Cascadia";
        src: url("https://excalidraw.com/Cascadia.woff2");
      }
    </style>
    
  </defs>
  <rect x="0" y="0" width="812.1721887923034" height="460.82421875" fill="#ffffff"></rect><g stroke-linecap="round" transform="translate(257.25390625 10) rotate(0 139.310546875 95.5703125)"><path d="M32 0 M32 0 C73.93 0.14, 119.39 0.09, 246.62 0 M32 0 C102.4 -0.95, 174.16 -1.45, 246.62 0 M246.62 0 C266.13 1.22, 280.33 9.79, 278.62 32 M246.62 0 C266.23 1.02, 276.58 9.01, 278.62 32 M278.62 32 C278.75 76.59, 278.49 122.14, 278.62 159.14 M278.62 32 C279.12 75.37, 278.54 119.94, 278.62 159.14 M278.62 159.14 C279.07 181.23, 269.56 190.82, 246.62 191.14 M278.62 159.14 C278.84 178.46, 268.73 192.89, 246.62 191.14 M246.62 191.14 C180.12 190.99, 118.57 189.86, 32 191.14 M246.62 191.14 C176.58 189.4, 106.25 189.56, 32 191.14 M32 191.14 C11.15 191.82, -0.92 181.05, 0 159.14 M32 191.14 C10.6 191.71, 0.36 180.01, 0 159.14 M0 159.14 C0.66 108.18, 2.08 61.75, 0 32 M0 159.14 C-1.03 121.08, -0.97 85.74, 0 32 M0 32 C1.78 11.09, 12.44 0.22, 32 0 M0 32 C1.02 9.15, 11.87 0.14, 32 0" stroke="#1e1e1e" stroke-width="1" fill="none"></path></g><g stroke-linecap="round"><g transform="translate(69.19140625 65.76171875) rotate(0 89.33297854471951 1.4771812249720142)"><path d="M0.06 0.8 C29.9 0.85, 150.16 1.25, 180.04 1.42 M-1.37 0.17 C28.26 0.9, 149.35 2.29, 179.31 2.79" stroke="#1e1e1e" stroke-width="1" fill="none"></path></g><g transform="translate(69.19140625 65.76171875) rotate(0 89.33297854471951 1.4771812249720142)"><path d="M152.3 13.35 C161.16 8.34, 172.63 3.53, 178.69 4.33 M150.67 13.1 C160.14 8.68, 169.71 6.61, 180.25 3.12" stroke="#1e1e1e" stroke-width="1" fill="none"></path></g><g transform="translate(69.19140625 65.76171875) rotate(0 89.33297854471951 1.4771812249720142)"><path d="M152.59 -7.16 C161.53 -4.34, 172.89 -1.31, 178.69 4.33 M150.96 -7.42 C160.39 -4.88, 169.86 0.01, 180.25 3.12" stroke="#1e1e1e" stroke-width="1" fill="none"></path></g></g><mask></mask><g transform="translate(10 52.93359375) rotate(0 24.529983520507812 12.5)"><text x="0" y="0" font-family="Virgil, HanziPen SC, Cangnanshoujiti, KaiTi, Segoe UI Emoji" font-size="20px" fill="#1e1e1e" text-anchor="start" style="white-space: pre;" direction="ltr" dominant-baseline="text-before-edge">(2, 3)</text></g><g transform="translate(374.44921875 89.22265625) rotate(0 20.599990844726562 12.5)"><text x="0" y="0" font-family="Virgil, HanziPen SC, Cangnanshoujiti, KaiTi, Segoe UI Emoji" font-size="20px" fill="#1e1e1e" text-anchor="start" style="white-space: pre;" direction="ltr" dominant-baseline="text-before-edge">乘法</text></g><g stroke-linecap="round"><g transform="translate(69.86643446628 129.08882196168736) rotate(0 89.30775266540238 1.6560600214044996)"><path d="M0.23 0.93 C30.21 1.57, 149.83 2.77, 179.73 2.94 M-1.11 0.37 C28.74 0.79, 148.85 0.95, 178.84 1.45" stroke="#1e1e1e" stroke-width="1" fill="none"></path></g><g transform="translate(69.86643446628 129.08882196168736) rotate(0 89.30775266540238 1.6560600214044996)"><path d="M152.11 11.66 C160.73 8.52, 167.17 7.08, 178.28 1.52 M151.22 10.83 C158.85 8.62, 169.42 3.9, 178.93 1.41" stroke="#1e1e1e" stroke-width="1" fill="none"></path></g><g transform="translate(69.86643446628 129.08882196168736) rotate(0 89.30775266540238 1.6560600214044996)"><path d="M152.28 -8.86 C160.69 -6.12, 167.09 -1.67, 178.28 1.52 M151.38 -9.69 C159.01 -5.18, 169.53 -3.18, 178.93 1.41" stroke="#1e1e1e" stroke-width="1" fill="none"></path></g></g><mask></mask><g transform="translate(10.675028216279998 116.2578125) rotate(0 24.529983520507812 12.5)"><text x="0" y="0" font-family="Virgil, HanziPen SC, Cangnanshoujiti, KaiTi, Segoe UI Emoji" font-size="20px" fill="#1e1e1e" text-anchor="start" style="white-space: pre;" direction="ltr" dominant-baseline="text-before-edge">(5, 0)</text></g><g stroke-linecap="round"><g transform="translate(546.6249999999999 60.4140625) rotate(0 80.31819016680129 1.0311166335269775)"><path d="M0.15 -0.19 C26.69 0.27, 132.77 3.03, 159.72 3.4 M-1.22 -1.34 C25.63 -1.3, 134.72 0.81, 161.86 1.5" stroke="#1e1e1e" stroke-width="1" fill="none"></path></g><g transform="translate(546.6249999999999 60.4140625) rotate(0 80.31819016680129 1.0311166335269775)"><path d="M133.14 9.34 C143.78 9.55, 151.14 5.52, 160.13 2.51 M133.42 12.1 C141.84 8.55, 151.81 5.05, 161.64 0.71" stroke="#1e1e1e" stroke-width="1" fill="none"></path></g><g transform="translate(546.6249999999999 60.4140625) rotate(0 80.31819016680129 1.0311166335269775)"><path d="M133.58 -11.18 C144.18 -3.98, 151.39 -1.02, 160.13 2.51 M133.86 -8.41 C142.12 -5.58, 151.95 -2.71, 161.64 0.71" stroke="#1e1e1e" stroke-width="1" fill="none"></path></g></g><mask></mask><g transform="translate(722.55859375 48.3125) rotate(0 5.779998779296875 12.5)"><text x="0" y="0" font-family="Virgil, HanziPen SC, Cangnanshoujiti, KaiTi, Segoe UI Emoji" font-size="20px" fill="#1e1e1e" text-anchor="start" style="white-space: pre;" direction="ltr" dominant-baseline="text-before-edge">6</text></g><g stroke-linecap="round"><g transform="translate(544.7093439436703 132.51171875) rotate(0 80.74458723776036 1.52367893345658)"><path d="M-0.32 -0.77 C26.73 0.04, 134.76 3.18, 161.81 3.82 M1.72 1.44 C28.73 2, 134.7 1.65, 161.38 2.14" stroke="#1e1e1e" stroke-width="1" fill="none"></path></g><g transform="translate(544.7093439436703 132.51171875) rotate(0 80.74458723776036 1.52367893345658)"><path d="M131.84 13.89 C142 11.6, 148.1 5.88, 160.84 1.51 M132.37 11.34 C140.72 8.18, 148.96 5.91, 162.14 2.39" stroke="#1e1e1e" stroke-width="1" fill="none"></path></g><g transform="translate(544.7093439436703 132.51171875) rotate(0 80.74458723776036 1.52367893345658)"><path d="M131.97 -6.63 C141.92 -3.56, 147.99 -3.91, 160.84 1.51 M132.5 -9.18 C140.68 -6.25, 148.88 -2.44, 162.14 2.39" stroke="#1e1e1e" stroke-width="1" fill="none"></path></g></g><mask></mask><g transform="translate(720.6429376936705 120.41015625) rotate(0 5.779998779296875 12.5)"><text x="0" y="0" font-family="Virgil, HanziPen SC, Cangnanshoujiti, KaiTi, Segoe UI Emoji" font-size="20px" fill="#1e1e1e" text-anchor="start" style="white-space: pre;" direction="ltr" dominant-baseline="text-before-edge">0</text></g><g stroke-linecap="round" transform="translate(260.5032043457031 259.68359375) rotate(0 139.310546875 95.5703125)"><path d="M32 0 M32 0 C95.4 0.66, 159.03 0.31, 246.62 0 M32 0 C83.36 0.48, 135.32 0.58, 246.62 0 M246.62 0 C267.26 0.68, 277.33 11.93, 278.62 32 M246.62 0 C267.68 1.86, 276.53 9.03, 278.62 32 M278.62 32 C279.67 77.44, 279.33 124.68, 278.62 159.14 M278.62 32 C277.65 60.4, 278.11 89.4, 278.62 159.14 M278.62 159.14 C279.75 179.73, 269 193.01, 246.62 191.14 M278.62 159.14 C279.4 179.03, 265.91 191.54, 246.62 191.14 M246.62 191.14 C172.43 189.39, 100.81 188.33, 32 191.14 M246.62 191.14 C185.07 192.49, 123.07 191.81, 32 191.14 M32 191.14 C12.23 190.62, 0.62 182.28, 0 159.14 M32 191.14 C9.18 190.77, 1.06 180.19, 0 159.14 M0 159.14 C-0.8 117.78, -0.5 77.55, 0 32 M0 159.14 C-0.6 116.78, -1.42 72.97, 0 32 M0 32 C1.78 10.99, 8.95 1.72, 32 0 M0 32 C1.37 11.72, 11.7 1.54, 32 0" stroke="#1e1e1e" stroke-width="1" fill="none"></path></g><g stroke-linecap="round"><g transform="translate(72.44070434570312 315.449396232222) rotate(0 89.97232740569862 1.0972546332103263)"><path d="M-0.8 0.67 C29.15 0.81, 148.36 0.99, 178.58 1.05 M0.98 -0.02 C31.4 0.23, 150.87 1.89, 180.75 2.21" stroke="#1e1e1e" stroke-width="1" fill="none"></path></g><g transform="translate(72.44070434570312 315.449396232222) rotate(0 89.97232740569862 1.0972546332103263)"><path d="M153.55 10.39 C156.97 11.83, 162.64 7.38, 179.16 1.74 M151.79 12.75 C158.91 10.53, 164.69 6.72, 181.41 3.03" stroke="#1e1e1e" stroke-width="1" fill="none"></path></g><g transform="translate(72.44070434570312 315.449396232222) rotate(0 89.97232740569862 1.0972546332103263)"><path d="M153.81 -10.13 C157.22 -4.53, 162.84 -4.82, 179.16 1.74 M152.04 -7.77 C159.04 -5.23, 164.75 -4.29, 181.41 3.03" stroke="#1e1e1e" stroke-width="1" fill="none"></path></g></g><mask></mask><g transform="translate(13.249298095703125 302.6171875) rotate(0 24.529983520507812 12.5)"><text x="0" y="0" font-family="Virgil, HanziPen SC, Cangnanshoujiti, KaiTi, Segoe UI Emoji" font-size="20px" fill="#1e1e1e" text-anchor="start" style="white-space: pre;" direction="ltr" dominant-baseline="text-before-edge">(7, 2)</text></g><g transform="translate(377.6985168457031 338.90625) rotate(0 20.599990844726562 12.5)"><text x="0" y="0" font-family="Virgil, HanziPen SC, Cangnanshoujiti, KaiTi, Segoe UI Emoji" font-size="20px" fill="#1e1e1e" text-anchor="start" style="white-space: pre;" direction="ltr" dominant-baseline="text-before-edge">乘法</text></g><g stroke-linecap="round"><g transform="translate(73.11573256198312 378.77241571168736) rotate(0 89.39220116846266 0.5615062484027931)"><path d="M-0.55 -0.95 C29.19 -0.67, 149.37 0.41, 179.33 0.93 M1.37 1.16 C30.84 1.64, 148.76 2.23, 178.23 2.04" stroke="#1e1e1e" stroke-width="1" fill="none"></path></g><g transform="translate(73.11573256198312 378.77241571168736) rotate(0 89.39220116846266 0.5615062484027931)"><path d="M148.45 11.82 C159.36 7.87, 172.02 3.41, 179.49 1.8 M150.7 13.11 C160.91 8.6, 171.04 4.52, 178.02 1.27" stroke="#1e1e1e" stroke-width="1" fill="none"></path></g><g transform="translate(73.11573256198312 378.77241571168736) rotate(0 89.39220116846266 0.5615062484027931)"><path d="M148.46 -8.7 C159.23 -4.93, 171.9 -1.66, 179.49 1.8 M150.71 -7.41 C160.73 -4.11, 170.86 -0.37, 178.02 1.27" stroke="#1e1e1e" stroke-width="1" fill="none"></path></g></g><mask></mask><g transform="translate(13.924326311983123 365.94140625) rotate(0 24.529983520507812 12.5)"><text x="0" y="0" font-family="Virgil, HanziPen SC, Cangnanshoujiti, KaiTi, Segoe UI Emoji" font-size="20px" fill="#1e1e1e" text-anchor="start" style="white-space: pre;" direction="ltr" dominant-baseline="text-before-edge">(5, 0)</text></g><g stroke-linecap="round"><g transform="translate(549.874298095703 310.09765625) rotate(0 80.95912007812416 1.6558782261238036)"><path d="M-0.42 0.41 C26.3 1.17, 133.18 3.14, 160.03 3.73 M1.57 -0.42 C28.69 0.07, 135.96 1.59, 162.33 2.01" stroke="#1e1e1e" stroke-width="1" fill="none"></path></g><g transform="translate(549.874298095703 310.09765625) rotate(0 80.95912007812416 1.6558782261238036)"><path d="M134.68 10.55 C143.15 8.99, 151.33 4.69, 160.91 3.33 M133.44 11.68 C144.6 7.31, 155.33 3.87, 161.76 2.13" stroke="#1e1e1e" stroke-width="1" fill="none"></path></g><g transform="translate(549.874298095703 310.09765625) rotate(0 80.95912007812416 1.6558782261238036)"><path d="M134.98 -9.97 C143.23 -5.86, 151.33 -4.49, 160.91 3.33 M133.74 -8.84 C144.8 -5.37, 155.42 -0.98, 161.76 2.13" stroke="#1e1e1e" stroke-width="1" fill="none"></path></g></g><mask></mask><g transform="translate(725.8078918457031 297.99609375) rotate(0 5.779998779296875 12.5)"><text x="0" y="0" font-family="Virgil, HanziPen SC, Cangnanshoujiti, KaiTi, Segoe UI Emoji" font-size="20px" fill="#1e1e1e" text-anchor="start" style="white-space: pre;" direction="ltr" dominant-baseline="text-before-edge">3</text></g><g stroke-linecap="round"><g transform="translate(547.9586420393734 381.9563409345699) rotate(0 80.0893577595055 1.7304187099049955)"><path d="M-0.14 0.97 C26.61 1.17, 132.76 1.47, 159.72 1.94 M-1.68 0.43 C25.5 0.69, 134.7 2.78, 161.86 3.03" stroke="#1e1e1e" stroke-width="1" fill="none"></path></g><g transform="translate(547.9586420393734 381.9563409345699) rotate(0 80.0893577595055 1.7304187099049955)"><path d="M135.13 11.06 C138.7 11.91, 148.44 8.36, 161.87 1.92 M133.21 12.41 C140.99 10.43, 149.49 8.36, 162.42 2.66" stroke="#1e1e1e" stroke-width="1" fill="none"></path></g><g transform="translate(547.9586420393734 381.9563409345699) rotate(0 80.0893577595055 1.7304187099049955)"><path d="M135.43 -9.46 C139.06 -3.78, 148.73 -2.5, 161.87 1.92 M133.51 -8.11 C141.17 -4.28, 149.58 -0.52, 162.42 2.66" stroke="#1e1e1e" stroke-width="1" fill="none"></path></g></g><mask></mask><g transform="translate(723.8922357893737 370.09375) rotate(0 39.139976501464844 12.5)"><text x="0" y="0" font-family="Virgil, HanziPen SC, Cangnanshoujiti, KaiTi, Segoe UI Emoji" font-size="20px" fill="#1e1e1e" text-anchor="start" style="white-space: pre;" direction="ltr" dominant-baseline="text-before-edge">undefined</text></g></svg>