<svg version="1.1" xmlns="http://www.w3.org/2000/svg" viewBox="0 0 512.0307402178832 191.62890625" width="1024.0614804357665" height="383.2578125">
  <!-- svg-source:excalidraw -->
  
  <defs>
    <style class="style-fonts">
      @font-face {
        font-family: "Virgil";
        src: url("https://excalidraw.com/Virgil.woff2");
      }
      @font-face {
        font-family: "Cascadia";
        src: url("https://excalidraw.com/Cascadia.woff2");
      }
    </style>
    
  </defs>
  <rect x="0" y="0" width="512.0307402178832" height="191.62890625" fill="#ffffff"></rect><g stroke-linecap="round" transform="translate(164.18825303372 10) rotate(0 77.59765625 36.60546875)"><path d="M18.3 0 M18.3 0 C40.64 0.95, 66.99 0.89, 136.89 0 M18.3 0 C57 -0.26, 97.25 -0.83, 136.89 0 M136.89 0 C147.27 1.22, 156.9 5.23, 155.2 18.3 M136.89 0 C147.37 1.02, 153.15 4.44, 155.2 18.3 M155.2 18.3 C154.87 30.19, 154.61 43.02, 155.2 54.91 M155.2 18.3 C155.52 30.16, 154.93 43.21, 155.2 54.91 M155.2 54.91 C155.65 67.87, 150.7 72.89, 136.89 73.21 M155.2 54.91 C155.42 65.09, 149.87 74.96, 136.89 73.21 M136.89 73.21 C99.19 73.39, 67.15 72.11, 18.3 73.21 M136.89 73.21 C98.25 71.87, 59.29 72.05, 18.3 73.21 M18.3 73.21 C6.58 73.89, -0.92 67.69, 0 54.91 M18.3 73.21 C6.04 73.79, 0.36 66.64, 0 54.91 M0 54.91 C-0.14 39.03, 1.28 27.67, 0 18.3 M0 54.91 C-0.45 43.3, -0.39 34.42, 0 18.3 M0 18.3 C1.78 6.53, 7.88 0.22, 18.3 0 M0 18.3 C1.02 4.58, 7.31 0.14, 18.3 0" stroke="#1e1e1e" stroke-width="1" fill="none"></path></g><g stroke-linecap="round"><g transform="translate(63.16393370344042 28.882268555845087) rotate(0 48.4191770226505 1.516569536024349)"><path d="M0.06 0.8 C16.26 0.86, 81.97 1.32, 98.21 1.5 M-1.37 0.17 C14.63 0.92, 81.16 2.35, 97.48 2.87" stroke="#1e1e1e" stroke-width="1" fill="none"></path></g><g transform="translate(63.16393370344042 28.882268555845087) rotate(0 48.4191770226505 1.516569536024349)"><path d="M70.36 13.09 C79.26 8.2, 90.78 3.53, 96.86 4.41 M68.73 12.83 C78.23 8.53, 87.84 6.58, 98.42 3.2" stroke="#1e1e1e" stroke-width="1" fill="none"></path></g><g transform="translate(63.16393370344042 28.882268555845087) rotate(0 48.4191770226505 1.516569536024349)"><path d="M70.89 -7.43 C79.79 -4.47, 91.1 -1.31, 96.86 4.41 M69.26 -7.69 C78.65 -5.03, 88.08 -0.02, 98.42 3.2" stroke="#1e1e1e" stroke-width="1" fill="none"></path></g></g><mask></mask><g transform="translate(10.223409283720002 15.859375) rotate(0 24.529983520507812 12.5)"><text x="0" y="0" font-family="Virgil, HanziPen SC, Cangnanshoujiti, KaiTi, Segoe UI Emoji" font-size="20px" fill="#1e1e1e" text-anchor="start" style="white-space: pre;" direction="ltr" dominant-baseline="text-before-edge">(2, 3)</text></g><g transform="translate(222.55934678372 36.6875) rotate(0 20.599990844726562 12.5)"><text x="0" y="0" font-family="Virgil, HanziPen SC, Cangnanshoujiti, KaiTi, Segoe UI Emoji" font-size="20px" fill="#1e1e1e" text-anchor="start" style="white-space: pre;" direction="ltr" dominant-baseline="text-before-edge">乘法</text></g><g stroke-linecap="round"><g transform="translate(62.94052441972042 65.28945022436244) rotate(0 49.26383713972126 0.5129811420494548)"><path d="M0.23 0.93 C16.86 1.29, 83.09 1.37, 99.64 1.25 M-1.11 0.37 C15.39 0.51, 82.11 -0.46, 98.75 -0.24" stroke="#1e1e1e" stroke-width="1" fill="none"></path></g><g transform="translate(62.94052441972042 65.28945022436244) rotate(0 49.26383713972126 0.5129811420494548)"><path d="M72.13 10.27 C80.72 7.04, 87.13 5.52, 98.19 -0.16 M71.24 9.44 C78.83 7.13, 89.36 2.31, 98.84 -0.27" stroke="#1e1e1e" stroke-width="1" fill="none"></path></g><g transform="translate(62.94052441972042 65.28945022436244) rotate(0 49.26383713972126 0.5129811420494548)"><path d="M72.08 -10.25 C80.53 -7.6, 86.95 -3.24, 98.19 -0.16 M71.19 -11.08 C78.85 -6.67, 89.4 -4.76, 98.84 -0.27" stroke="#1e1e1e" stroke-width="1" fill="none"></path></g></g><mask></mask><g transform="translate(10 54.0859375) rotate(0 24.529983520507812 12.5)"><text x="0" y="0" font-family="Virgil, HanziPen SC, Cangnanshoujiti, KaiTi, Segoe UI Emoji" font-size="20px" fill="#1e1e1e" text-anchor="start" style="white-space: pre;" direction="ltr" dominant-baseline="text-before-edge">(5, 0)</text></g><g stroke-linecap="round"><g transform="translate(323.5010448928306 28.939271243786948) rotate(0 47.553509797232266 -0.1621132174280433)"><path d="M0.15 -0.19 C15.77 -0.11, 78.16 1.13, 94.19 1.12 M-1.22 -1.34 C14.71 -1.68, 80.11 -1.1, 96.33 -0.78" stroke="#1e1e1e" stroke-width="1" fill="none"></path></g><g transform="translate(323.5010448928306 28.939271243786948) rotate(0 47.553509797232266 -0.1621132174280433)"><path d="M67.69 7.31 C78.31 7.44, 85.64 3.32, 94.6 0.23 M67.98 10.07 C76.37 6.44, 86.31 2.86, 96.11 -1.57" stroke="#1e1e1e" stroke-width="1" fill="none"></path></g><g transform="translate(323.5010448928306 28.939271243786948) rotate(0 47.553509797232266 -0.1621132174280433)"><path d="M67.96 -13.21 C78.59 -6.09, 85.83 -3.22, 94.6 0.23 M68.24 -10.45 C76.52 -7.69, 86.39 -4.89, 96.11 -1.57" stroke="#1e1e1e" stroke-width="1" fill="none"></path></g></g><mask></mask><g transform="translate(424.57106553372 14.26953125) rotate(0 5.779998779296875 12.5)"><text x="0" y="0" font-family="Virgil, HanziPen SC, Cangnanshoujiti, KaiTi, Segoe UI Emoji" font-size="20px" fill="#1e1e1e" text-anchor="start" style="white-space: pre;" direction="ltr" dominant-baseline="text-before-edge">6</text></g><g stroke-linecap="round"><g transform="translate(324.42746400133376 68.8664166743468) rotate(0 46.750275535775074 0.05276195101680514)"><path d="M-0.32 -0.77 C15.4 -0.54, 78.1 0.29, 93.82 0.35 M1.72 1.44 C17.4 1.43, 78.04 -1.25, 93.39 -1.33" stroke="#1e1e1e" stroke-width="1" fill="none"></path></g><g transform="translate(324.42746400133376 68.8664166743468) rotate(0 46.750275535775074 0.05276195101680514)"><path d="M64.2 11.35 C74.28 8.82, 80.29 2.86, 92.85 -1.96 M64.73 8.81 C72.98 5.37, 81.12 2.82, 94.15 -1.08" stroke="#1e1e1e" stroke-width="1" fill="none"></path></g><g transform="translate(324.42746400133376 68.8664166743468) rotate(0 46.750275535775074 0.05276195101680514)"><path d="M63.65 -9.16 C73.7 -6.34, 79.85 -6.93, 92.85 -1.96 M64.18 -11.71 C72.47 -9.06, 80.76 -5.53, 94.15 -1.08" stroke="#1e1e1e" stroke-width="1" fill="none"></path></g></g><mask></mask><g transform="translate(422.59290947739055 52.71484375) rotate(0 5.779998779296875 12.5)"><text x="0" y="0" font-family="Virgil, HanziPen SC, Cangnanshoujiti, KaiTi, Segoe UI Emoji" font-size="20px" fill="#1e1e1e" text-anchor="start" style="white-space: pre;" direction="ltr" dominant-baseline="text-before-edge">0</text></g><g stroke-linecap="round" transform="translate(165.34613077128324 108.41796875) rotate(0 77.59765625 36.60546875)"><path d="M18.3 0 M18.3 0 C60.64 -0.75, 105.12 -1.18, 136.89 0 M18.3 0 C44.84 0.98, 72.84 0.69, 136.89 0 M136.89 0 C150.18 -1.15, 153.44 5.06, 155.2 18.3 M136.89 0 C148.34 0.61, 157.01 6.75, 155.2 18.3 M155.2 18.3 C153.55 27.68, 154.05 37.77, 155.2 54.91 M155.2 18.3 C155.75 31.66, 154.39 42.47, 155.2 54.91 M155.2 54.91 C154.27 67.76, 149.23 72.14, 136.89 73.21 M155.2 54.91 C157.11 67.7, 150.58 73.63, 136.89 73.21 M136.89 73.21 C106.47 71.58, 72.74 73.59, 18.3 73.21 M136.89 73.21 C94.97 72.23, 53.21 72.26, 18.3 73.21 M18.3 73.21 C5.48 73.17, 1.13 68.09, 0 54.91 M18.3 73.21 C5.62 71.91, 1.62 65.96, 0 54.91 M0 54.91 C0.9 43.44, 1.2 32.06, 0 18.3 M0 54.91 C0.54 46.15, 0.93 38.88, 0 18.3 M0 18.3 C0.59 6.72, 7.88 0.09, 18.3 0 M0 18.3 C-0.17 6.74, 7.3 0.26, 18.3 0" stroke="#1e1e1e" stroke-width="1" fill="none"></path></g><g stroke-linecap="round"><g transform="translate(64.32181144100355 127.30023730584503) rotate(0 49.35283303053092 1.107641332124956)"><path d="M-0.55 0.79 C15.64 0.99, 80.65 0.97, 96.98 0.97 M1.36 0.15 C17.95 0.51, 83.41 1.82, 99.26 2.06" stroke="#1e1e1e" stroke-width="1" fill="none"></path></g><g transform="translate(64.32181144100355 127.30023730584503) rotate(0 49.35283303053092 1.107641332124956)"><path d="M72.2 10.45 C77.57 8.52, 85.38 5.28, 99.19 2.76 M70.01 11.29 C78.12 9.62, 86.84 7.03, 98.88 1.17" stroke="#1e1e1e" stroke-width="1" fill="none"></path></g><g transform="translate(64.32181144100355 127.30023730584503) rotate(0 49.35283303053092 1.107641332124956)"><path d="M72.57 -10.06 C77.79 -6.15, 85.49 -3.55, 99.19 2.76 M70.38 -9.22 C78.5 -5.39, 87.12 -2.49, 98.88 1.17" stroke="#1e1e1e" stroke-width="1" fill="none"></path></g></g><mask></mask><g transform="translate(11.381287021283129 114.27734375) rotate(0 24.529983520507812 12.5)"><text x="0" y="0" font-family="Virgil, HanziPen SC, Cangnanshoujiti, KaiTi, Segoe UI Emoji" font-size="20px" fill="#1e1e1e" text-anchor="start" style="white-space: pre;" direction="ltr" dominant-baseline="text-before-edge">(7, 2)</text></g><g transform="translate(223.71722452128324 135.10546875) rotate(0 20.599990844726562 12.5)"><text x="0" y="0" font-family="Virgil, HanziPen SC, Cangnanshoujiti, KaiTi, Segoe UI Emoji" font-size="20px" fill="#1e1e1e" text-anchor="start" style="white-space: pre;" direction="ltr" dominant-baseline="text-before-edge">除法</text></g><g stroke-linecap="round"><g transform="translate(64.09840215728354 163.7074189743625) rotate(0 49.64286158806948 -0.04399565933013605)"><path d="M-0.67 -0.04 C16.06 0.08, 83.14 -0.22, 99.95 -0.32 M1.19 -1.11 C17.82 -0.73, 82.8 0.78, 99.22 1.02" stroke="#1e1e1e" stroke-width="1" fill="none"></path></g><g transform="translate(64.09840215728354 163.7074189743625) rotate(0 49.64286158806948 -0.04399565933013605)"><path d="M70.77 11.43 C77.89 9.37, 84.97 3.93, 98.19 0.36 M70.45 9.83 C80.41 6.82, 89.2 3.9, 99.38 1.44" stroke="#1e1e1e" stroke-width="1" fill="none"></path></g><g transform="translate(64.09840215728354 163.7074189743625) rotate(0 49.64286158806948 -0.04399565933013605)"><path d="M71.17 -9.09 C78.01 -5.65, 84.98 -5.6, 98.19 0.36 M70.86 -10.68 C80.84 -7, 89.5 -3.22, 99.38 1.44" stroke="#1e1e1e" stroke-width="1" fill="none"></path></g></g><mask></mask><g transform="translate(11.157877737563126 152.50390625) rotate(0 24.529983520507812 12.5)"><text x="0" y="0" font-family="Virgil, HanziPen SC, Cangnanshoujiti, KaiTi, Segoe UI Emoji" font-size="20px" fill="#1e1e1e" text-anchor="start" style="white-space: pre;" direction="ltr" dominant-baseline="text-before-edge">(5, 0)</text></g><g stroke-linecap="round"><g transform="translate(324.6589226303936 127.35723999378695) rotate(0 47.95837446520295 0.4648980036079422)"><path d="M0.65 -0.69 C16.29 -0.61, 78.52 -0.21, 94.22 0.07 M-0.46 1.56 C15.49 1.82, 80.65 1.13, 96.38 1.28" stroke="#1e1e1e" stroke-width="1" fill="none"></path></g><g transform="translate(324.6589226303936 127.35723999378695) rotate(0 47.95837446520295 0.4648980036079422)"><path d="M67.06 9.83 C76.64 7.32, 87.65 6.1, 96.95 0.52 M68.11 11.18 C74.26 10.03, 79.83 6.79, 97.02 2.1" stroke="#1e1e1e" stroke-width="1" fill="none"></path></g><g transform="translate(324.6589226303936 127.35723999378695) rotate(0 47.95837446520295 0.4648980036079422)"><path d="M67.02 -10.69 C76.56 -6.32, 87.58 -0.66, 96.95 0.52 M68.08 -9.34 C74.32 -6.17, 79.89 -5.08, 97.02 2.1" stroke="#1e1e1e" stroke-width="1" fill="none"></path></g></g><mask></mask><g transform="translate(425.72894327128324 112.6875) rotate(0 5.779998779296875 12.5)"><text x="0" y="0" font-family="Virgil, HanziPen SC, Cangnanshoujiti, KaiTi, Segoe UI Emoji" font-size="20px" fill="#1e1e1e" text-anchor="start" style="white-space: pre;" direction="ltr" dominant-baseline="text-before-edge">3</text></g><g stroke-linecap="round"><g transform="translate(325.5853417388969 167.28438542434674) rotate(0 46.68278766785346 -0.804625449204508)"><path d="M-0.4 0.32 C15.41 0.42, 78.3 0.28, 93.76 -0.01 M1.6 -0.56 C17.42 -0.78, 78.35 -1.94, 93.31 -1.96" stroke="#1e1e1e" stroke-width="1" fill="none"></path></g><g transform="translate(325.5853417388969 167.28438542434674) rotate(0 46.68278766785346 -0.804625449204508)"><path d="M65.77 10.2 C71.82 5.7, 75.42 4.98, 91.99 -2.15 M65.03 7.99 C73.12 6.58, 79.02 2.12, 92.84 -1.63" stroke="#1e1e1e" stroke-width="1" fill="none"></path></g><g transform="translate(325.5853417388969 167.28438542434674) rotate(0 46.68278766785346 -0.804625449204508)"><path d="M65.53 -10.32 C71.52 -10.46, 75.18 -6.83, 91.99 -2.15 M64.79 -12.53 C72.98 -8.62, 78.94 -7.78, 92.84 -1.63" stroke="#1e1e1e" stroke-width="1" fill="none"></path></g></g><mask></mask><g transform="translate(423.75078721495356 151.1328125) rotate(0 39.139976501464844 12.5)"><text x="0" y="0" font-family="Virgil, HanziPen SC, Cangnanshoujiti, KaiTi, Segoe UI Emoji" font-size="20px" fill="#1e1e1e" text-anchor="start" style="white-space: pre;" direction="ltr" dominant-baseline="text-before-edge">undefined</text></g></svg>