<svg version="1.1" xmlns="http://www.w3.org/2000/svg" viewBox="0 0 936.4064517752091 248.064453125" width="1872.8129035504182" height="496.12890625">
  <!-- svg-source:excalidraw -->
  
  <defs>
    <style class="style-fonts">
      @font-face {
        font-family: "Virgil";
        src: url("https://excalidraw.com/Virgil.woff2");
      }
      @font-face {
        font-family: "Cascadia";
        src: url("https://excalidraw.com/Cascadia.woff2");
      }
    </style>
    
  </defs>
  <rect x="0" y="0" width="936.4064517752091" height="248.064453125" fill="#ffffff"></rect><g stroke-linecap="round" transform="translate(99.73551519073646 10) rotate(0 100.5 31)"><path d="M15.5 0 M15.5 0 C61.16 -0.09, 105.76 2.55, 185.5 0 M15.5 0 C70 0.29, 126.5 -0.02, 185.5 0 M185.5 0 C197.05 1.77, 202.19 4.73, 201 15.5 M185.5 0 C196.32 1.44, 200.58 6.01, 201 15.5 M201 15.5 C200.12 25.06, 201.43 35.58, 201 46.5 M201 15.5 C200.97 24.19, 200.79 33.59, 201 46.5 M201 46.5 C199.41 56.03, 193.94 63.82, 185.5 62 M201 46.5 C201.04 56.57, 194.52 63.98, 185.5 62 M185.5 62 C130.84 64.57, 79.3 62.75, 15.5 62 M185.5 62 C120.7 61.09, 56.42 62.39, 15.5 62 M15.5 62 C5.66 61.14, -0.53 54.95, 0 46.5 M15.5 62 C5.63 59.73, 0.65 57.58, 0 46.5 M0 46.5 C-1.28 36.63, -0.04 25.01, 0 15.5 M0 46.5 C0.8 37.79, -0.45 31.85, 0 15.5 M0 15.5 C0.29 6.84, 7.12 1.67, 15.5 0 M0 15.5 C-0.49 7.26, 4.87 1.52, 15.5 0" stroke="#1e1e1e" stroke-width="1" fill="none"></path></g><g transform="translate(115.54556615509193 28.5) rotate(0 84.68994903564453 12.5)"><text x="84.68994903564453" y="0" font-family="Virgil, HanziPen SC, Cangnanshoujiti, KaiTi, Segoe UI Emoji" font-size="20px" fill="#1e1e1e" text-anchor="middle" style="white-space: pre;" direction="ltr" dominant-baseline="text-before-edge">type 棋盘1(空棋盘)</text></g><g mask="url(#mask-fEsv20U6U4fIQE4R3aeKE)" stroke-linecap="round"><g transform="translate(304.0929555039837 43.74907957013994) rotate(0 51.79065066894475 -1.2819708496878093)"><path d="M1.09 -0.15 C18.15 -0.51, 86.53 -2.25, 103.37 -2.41 M0.21 -1.28 C17.09 -1.5, 86.02 -1.69, 102.84 -1.41" stroke="#1e1e1e" stroke-width="1" fill="none"></path></g><g transform="translate(304.0929555039837 43.74907957013994) rotate(0 51.79065066894475 -1.2819708496878093)"><path d="M74.34 10.02 C83.74 3.83, 96.75 2.17, 102.03 -0.1 M74.54 8.5 C81.08 5.36, 89.89 3.99, 102.1 -1.7" stroke="#1e1e1e" stroke-width="1" fill="none"></path></g><g transform="translate(304.0929555039837 43.74907957013994) rotate(0 51.79065066894475 -1.2819708496878093)"><path d="M74.45 -10.5 C83.76 -8.82, 96.73 -2.62, 102.03 -0.1 M74.65 -12.02 C81.01 -9.9, 89.79 -6.01, 102.1 -1.7" stroke="#1e1e1e" stroke-width="1" fill="none"></path></g></g><mask id="mask-fEsv20U6U4fIQE4R3aeKE"><rect x="0" y="0" fill="#fff" width="506.67538191867754" height="145.13095233075364"></rect><rect x="334.78417786660407" y="30.558143189833118" fill="#000" width="41.199981689453125" height="25" opacity="1"></rect></mask><g transform="translate(334.78417786660407 30.558143189833118) rotate(0 21.0994283063244 11.908965530619014)"><text x="20.599990844726562" y="0" font-family="Virgil, HanziPen SC, Cangnanshoujiti, KaiTi, Segoe UI Emoji" font-size="20px" fill="#1e1e1e" text-anchor="middle" style="white-space: pre;" direction="ltr" dominant-baseline="text-before-edge">落子</text></g><g mask="url(#mask-9TKh5F7cYBo0avIbI4RaA)" stroke-linecap="round"><g transform="translate(11.006613931767674 44.99180821183148) rotate(0 41.4408248505984 -1.5122369032947063)"><path d="M0.3 0.62 C14.38 -0.05, 69.91 -3.05, 83.89 -3.64 M-1.01 -0.1 C12.94 -0.6, 68.71 -1.32, 82.77 -2.12" stroke="#1e1e1e" stroke-width="1" fill="none"></path></g><g transform="translate(11.006613931767674 44.99180821183148) rotate(0 41.4408248505984 -1.5122369032947063)"><path d="M55.96 8.5 C61.8 6.08, 69.95 1.97, 84.46 -2.82 M54.94 8.13 C63.64 5.75, 74.82 1.07, 82.17 -1.35" stroke="#1e1e1e" stroke-width="1" fill="none"></path></g><g transform="translate(11.006613931767674 44.99180821183148) rotate(0 41.4408248505984 -1.5122369032947063)"><path d="M55.3 -12.01 C61.37 -9.3, 69.69 -8.27, 84.46 -2.82 M54.28 -12.38 C63.31 -7.65, 74.72 -5.24, 82.17 -1.35" stroke="#1e1e1e" stroke-width="1" fill="none"></path></g></g><mask id="mask-9TKh5F7cYBo0avIbI4RaA"><rect x="0" y="0" fill="#fff" width="195.2143744738886" height="148.60032674386878"></rect><rect x="32.51050335810157" y="30.687548945812864" fill="#000" width="41.199981689453125" height="25" opacity="1"></rect></mask><g transform="translate(32.51050335810157 30.687548945812864) rotate(0 19.936935424264504 12.792022362723912)"><text x="20.599990844726562" y="0" font-family="Virgil, HanziPen SC, Cangnanshoujiti, KaiTi, Segoe UI Emoji" font-size="20px" fill="#1e1e1e" text-anchor="middle" style="white-space: pre;" direction="ltr" dominant-baseline="text-before-edge">开始</text></g><g stroke-linecap="round" transform="translate(413.46989019073646 12.41015625) rotate(0 100.5 31)"><path d="M15.5 0 M15.5 0 C63.71 2.07, 114.12 0.69, 185.5 0 M15.5 0 C57.11 -1.03, 97.53 -2, 185.5 0 M185.5 0 C196.53 0.61, 201.71 3.59, 201 15.5 M185.5 0 C197.09 2.13, 201.15 3.79, 201 15.5 M201 15.5 C202.19 24.87, 200.23 36.72, 201 46.5 M201 15.5 C201.08 22.93, 201.74 30.1, 201 46.5 M201 46.5 C200.83 57.06, 194.52 62.13, 185.5 62 M201 46.5 C201.83 56.87, 194.49 63.19, 185.5 62 M185.5 62 C139.11 60.57, 96 61.51, 15.5 62 M185.5 62 C147.91 62.69, 111.76 62.76, 15.5 62 M15.5 62 C3.83 60.05, 0.76 56.59, 0 46.5 M15.5 62 C3.98 62.37, 1.25 55.35, 0 46.5 M0 46.5 C-0.11 40.14, -0.14 30.03, 0 15.5 M0 46.5 C-0.89 38.92, -0.53 32.02, 0 15.5 M0 15.5 C1.48 3.79, 6.84 -1.09, 15.5 0 M0 15.5 C-1.77 3.97, 6.15 -1.97, 15.5 0" stroke="#1e1e1e" stroke-width="1" fill="none"></path></g><g transform="translate(467.0599170462052 30.91015625) rotate(0 46.90997314453125 12.5)"><text x="46.90997314453125" y="0" font-family="Virgil, HanziPen SC, Cangnanshoujiti, KaiTi, Segoe UI Emoji" font-size="20px" fill="#1e1e1e" text-anchor="middle" style="white-space: pre;" direction="ltr" dominant-baseline="text-before-edge">type 棋盘2</text></g><g stroke-linecap="round" transform="translate(725.4064517752091 12.046875) rotate(0 100.5 31)"><path d="M15.5 0 M15.5 0 C74.39 -2.12, 133.92 -2.46, 185.5 0 M15.5 0 C77.4 0.21, 137.51 1.11, 185.5 0 M185.5 0 C194.07 0.46, 202.17 6.16, 201 15.5 M185.5 0 C194.85 -2.17, 199.62 3.53, 201 15.5 M201 15.5 C200.83 23.39, 202.56 34.91, 201 46.5 M201 15.5 C201.87 23.42, 200.65 31.2, 201 46.5 M201 46.5 C202.23 55.8, 194.88 63.02, 185.5 62 M201 46.5 C202.14 57.79, 194.9 63.67, 185.5 62 M185.5 62 C136.43 60.98, 85.37 63.55, 15.5 62 M185.5 62 C119.67 61.4, 55.23 61.44, 15.5 62 M15.5 62 C5.48 63.85, 0.66 56.4, 0 46.5 M15.5 62 C5.15 60.91, 0.21 57.25, 0 46.5 M0 46.5 C-1.91 36.37, 1.2 28.4, 0 15.5 M0 46.5 C-0.2 34.67, 0.32 23.41, 0 15.5 M0 15.5 C-0.97 4.14, 5.07 1.69, 15.5 0 M0 15.5 C2.04 3.56, 3.59 1.66, 15.5 0" stroke="#1e1e1e" stroke-width="1" fill="none"></path></g><g transform="translate(780.2064777151505 30.546875) rotate(0 45.699974060058594 12.5)"><text x="45.699974060058594" y="0" font-family="Virgil, HanziPen SC, Cangnanshoujiti, KaiTi, Segoe UI Emoji" font-size="20px" fill="#1e1e1e" text-anchor="middle" style="white-space: pre;" direction="ltr" dominant-baseline="text-before-edge">type 棋盘n</text></g><g mask="url(#mask-DHorLK6qZ6-sD9sewwV8C)" stroke-linecap="round"><g transform="translate(618.0773425331114 44.66426021225436) rotate(0 50.58671350956854 -0.6377200488919641)"><path d="M0.09 -0.44 C17.01 -0.53, 85.33 -0.94, 102.5 -1.19 M-1.33 -1.72 C15.35 -1.53, 84.18 0.31, 101.51 0.44" stroke="#1e1e1e" stroke-width="1" fill="none"></path></g><g transform="translate(618.0773425331114 44.66426021225436) rotate(0 50.58671350956854 -0.6377200488919641)"><path d="M72.4 10.05 C84.27 7.35, 93.76 1.74, 101.42 2.13 M73.86 9.4 C83.4 6.58, 96.22 2.59, 101.34 0.45" stroke="#1e1e1e" stroke-width="1" fill="none"></path></g><g transform="translate(618.0773425331114 44.66426021225436) rotate(0 50.58671350956854 -0.6377200488919641)"><path d="M72.78 -10.47 C84.39 -5.38, 93.74 -3.2, 101.42 2.13 M74.23 -11.11 C83.48 -5.97, 96.16 -1.98, 101.34 0.45" stroke="#1e1e1e" stroke-width="1" fill="none"></path></g></g><mask id="mask-DHorLK6qZ6-sD9sewwV8C"><rect x="0" y="0" fill="#fff" width="820.6597689478052" height="146.04613297286807"></rect><rect x="661.1785685578411" y="31.473323831947482" fill="#000" width="16.379974365234375" height="25" opacity="1"></rect></mask><g transform="translate(661.1785685578411 31.473323831947482) rotate(0 7.4854874848387 12.553216331414916)"><text x="8.189987182617188" y="0" font-family="Virgil, HanziPen SC, Cangnanshoujiti, KaiTi, Segoe UI Emoji" font-size="20px" fill="#1e1e1e" text-anchor="middle" style="white-space: pre;" direction="ltr" dominant-baseline="text-before-edge">...</text></g><g stroke-linecap="round" transform="translate(97.89567144073646 141.71484375) rotate(0 100.5 47.5)"><path d="M23.75 0 M23.75 0 C62.74 0.14, 102.49 1.28, 177.25 0 M23.75 0 C72.88 0.77, 120.79 0.16, 177.25 0 M177.25 0 C194.06 0.05, 200.4 6.67, 201 23.75 M177.25 0 C193.86 -1.8, 201.36 8.37, 201 23.75 M201 23.75 C200.12 40.51, 199.48 61.04, 201 71.25 M201 23.75 C201.33 38.55, 201.06 54.25, 201 71.25 M201 71.25 C202.79 88.31, 191.26 95.31, 177.25 95 M201 71.25 C200.43 85.68, 193.18 97.11, 177.25 95 M177.25 95 C129.68 97.81, 85.95 96.35, 23.75 95 M177.25 95 C129.2 95.12, 79.7 96, 23.75 95 M23.75 95 C6.94 95.73, -0.84 85.3, 0 71.25 M23.75 95 C8.67 95.03, 1.55 88.91, 0 71.25 M0 71.25 C0.54 53.96, -0.55 38.31, 0 23.75 M0 71.25 C0.54 54.27, -0.76 37.07, 0 23.75 M0 23.75 C-0.91 6.55, 6.36 1.79, 23.75 0 M0 23.75 C-0.57 8.16, 5.96 -0.15, 23.75 0" stroke="#1e1e1e" stroke-width="1" fill="none"></path></g><g transform="translate(147.99569280304115 164.21484375) rotate(0 50.39997863769531 25)"><text x="50.39997863769531" y="0" font-family="Virgil, HanziPen SC, Cangnanshoujiti, KaiTi, Segoe UI Emoji" font-size="20px" fill="#1e1e1e" text-anchor="middle" style="white-space: pre;" direction="ltr" dominant-baseline="text-before-edge">渲染 棋盘1</text><text x="50.39997863769531" y="25" font-family="Virgil, HanziPen SC, Cangnanshoujiti, KaiTi, Segoe UI Emoji" font-size="20px" fill="#1e1e1e" text-anchor="middle" style="white-space: pre;" direction="ltr" dominant-baseline="text-before-edge">是否结束?</text></g><g stroke-linecap="round"><g transform="translate(201.04919608668285 78.44140625) rotate(0 0.16304946396763853 27.868589152265344)"><path d="M-0.69 -0.35 C-0.57 9.04, 0.21 46.47, 0.42 55.79 M1.15 -1.58 C1.09 8.07, -0.56 47.6, -0.82 57.31" stroke="#1e1e1e" stroke-width="1" fill="none"></path></g><g transform="translate(201.04919608668285 78.44140625) rotate(0 0.16304946396763853 27.868589152265344)"><path d="M-10.02 29.83 C-7.23 37.39, -5.28 45.52, 1.07 57.74 M-8.68 31.6 C-7.5 37.49, -4.24 46.9, -1.49 56.84" stroke="#1e1e1e" stroke-width="1" fill="none"></path></g><g transform="translate(201.04919608668285 78.44140625) rotate(0 0.16304946396763853 27.868589152265344)"><path d="M9.06 30.5 C6.6 37.77, 3.31 45.71, 1.07 57.74 M10.4 32.27 C6.07 38.08, 3.82 47.3, -1.49 56.84" stroke="#1e1e1e" stroke-width="1" fill="none"></path></g></g><mask></mask><g stroke-linecap="round" transform="translate(410.30973394073646 141.9453125) rotate(0 100.5 47.5)"><path d="M23.75 0 M23.75 0 C55.34 -0.06, 91.58 -0.75, 177.25 0 M23.75 0 C58.87 0.52, 92.97 -0.01, 177.25 0 M177.25 0 C192.7 -0.86, 202.64 8.45, 201 23.75 M177.25 0 C190.94 -0.54, 202.55 9.41, 201 23.75 M201 23.75 C202.13 37.06, 198.72 53.05, 201 71.25 M201 23.75 C201.27 42.1, 201.67 58.94, 201 71.25 M201 71.25 C199.45 86.45, 195.04 93.55, 177.25 95 M201 71.25 C200.14 86.34, 194.96 93.44, 177.25 95 M177.25 95 C139.71 95.56, 100.5 96.02, 23.75 95 M177.25 95 C133.89 96.22, 89.5 95.43, 23.75 95 M23.75 95 C9.79 96.89, 0.04 88.17, 0 71.25 M23.75 95 C8.41 97, -2.21 85.55, 0 71.25 M0 71.25 C-0.15 58.92, 0.6 49.14, 0 23.75 M0 71.25 C-0.81 60.25, 0.32 48.58, 0 23.75 M0 23.75 C1.08 9.79, 6.97 -1.69, 23.75 0 M0 23.75 C-1.91 7.09, 8.39 2.17, 23.75 0" stroke="#1e1e1e" stroke-width="1" fill="none"></path></g><g transform="translate(460.40975530304115 164.4453125) rotate(0 50.39997863769531 25)"><text x="50.39997863769531" y="0" font-family="Virgil, HanziPen SC, Cangnanshoujiti, KaiTi, Segoe UI Emoji" font-size="20px" fill="#1e1e1e" text-anchor="middle" style="white-space: pre;" direction="ltr" dominant-baseline="text-before-edge">渲染 棋盘2</text><text x="50.39997863769531" y="25" font-family="Virgil, HanziPen SC, Cangnanshoujiti, KaiTi, Segoe UI Emoji" font-size="20px" fill="#1e1e1e" text-anchor="middle" style="white-space: pre;" direction="ltr" dominant-baseline="text-before-edge">是否结束?</text></g><g stroke-linecap="round"><g transform="translate(513.6459078223382 79.65484834773463) rotate(0 -0.3788169759442326 29.166861338783065)"><path d="M-0.13 0.45 C-0.01 9.9, 0.8 48.01, 0.91 57.74 M-1.66 -0.36 C-1.72 9.72, -0.24 48.62, -0.04 58.7" stroke="#1e1e1e" stroke-width="1" fill="none"></path></g><g transform="translate(513.6459078223382 79.65484834773463) rotate(0 -0.3788169759442326 29.166861338783065)"><path d="M-10.16 31.34 C-9.09 39.28, -3.88 47.38, -0.32 57.71 M-10.48 31.2 C-8.02 38.48, -5.01 44.33, -0.42 58.39" stroke="#1e1e1e" stroke-width="1" fill="none"></path></g><g transform="translate(513.6459078223382 79.65484834773463) rotate(0 -0.3788169759442326 29.166861338783065)"><path d="M9.96 30.75 C4.69 38.86, 3.55 47.14, -0.32 57.71 M9.63 30.61 C7.1 38.15, 5.12 44.15, -0.42 58.39" stroke="#1e1e1e" stroke-width="1" fill="none"></path></g></g><mask></mask><g stroke-linecap="round" transform="translate(719.7541080252091 143.064453125) rotate(0 100.5 47.5)"><path d="M23.75 0 M23.75 0 C63.12 -1.56, 106.26 -0.24, 177.25 0 M23.75 0 C60.46 0.4, 96.61 0.62, 177.25 0 M177.25 0 C191.57 0, 202.38 9.15, 201 23.75 M177.25 0 C195.12 -1.04, 202.27 8.17, 201 23.75 M201 23.75 C199.32 36.8, 200.33 53.61, 201 71.25 M201 23.75 C201.75 42.57, 200.77 60.86, 201 71.25 M201 71.25 C201.41 88.85, 193.16 95.42, 177.25 95 M201 71.25 C201.79 86.39, 195.23 94.98, 177.25 95 M177.25 95 C121.85 96.72, 63.1 97.72, 23.75 95 M177.25 95 C137.7 96.48, 96.35 95.75, 23.75 95 M23.75 95 C6.11 95.62, 0 87.17, 0 71.25 M23.75 95 C9.64 97.16, -1.39 87.77, 0 71.25 M0 71.25 C1.54 58.86, 1.93 46.34, 0 23.75 M0 71.25 C0.01 53.21, 0.49 33.27, 0 23.75 M0 23.75 C-1.97 7.33, 8.76 -1.89, 23.75 0 M0 23.75 C0.99 6.75, 6.7 -1.56, 23.75 0" stroke="#1e1e1e" stroke-width="1" fill="none"></path></g><g transform="translate(771.0641284719865 165.564453125) rotate(0 49.189979553222656 25)"><text x="49.189979553222656" y="0" font-family="Virgil, HanziPen SC, Cangnanshoujiti, KaiTi, Segoe UI Emoji" font-size="20px" fill="#1e1e1e" text-anchor="middle" style="white-space: pre;" direction="ltr" dominant-baseline="text-before-edge">渲染 棋盘n</text><text x="49.189979553222656" y="25" font-family="Virgil, HanziPen SC, Cangnanshoujiti, KaiTi, Segoe UI Emoji" font-size="20px" fill="#1e1e1e" text-anchor="middle" style="white-space: pre;" direction="ltr" dominant-baseline="text-before-edge">是否结束?</text></g><g stroke-linecap="round"><g transform="translate(823.8308304458841 75.66516991121694) rotate(0 0.23115088669237593 31.941086409799766)"><path d="M0.99 0.88 C1.02 11.12, 0.49 51.88, 0.09 62.37 M0.05 0.29 C-0.01 10.61, -0.66 53.33, -0.5 63.59" stroke="#1e1e1e" stroke-width="1" fill="none"></path></g><g transform="translate(823.8308304458841 75.66516991121694) rotate(0 0.23115088669237593 31.941086409799766)"><path d="M-9.24 36.51 C-8.51 42.12, -3.18 52.28, 1.28 65.42 M-11.3 35.47 C-6.37 43.72, -3.6 54, -0.58 64.16" stroke="#1e1e1e" stroke-width="1" fill="none"></path></g><g transform="translate(823.8308304458841 75.66516991121694) rotate(0 0.23115088669237593 31.941086409799766)"><path d="M11.28 36.56 C6.03 42.32, 5.39 52.47, 1.28 65.42 M9.22 35.51 C7.74 43.59, 4.11 53.85, -0.58 64.16" stroke="#1e1e1e" stroke-width="1" fill="none"></path></g></g><mask></mask></svg>